<svg xmlns="http://www.w3.org/2000/svg" width="81.607" height="81.608" viewBox="0 0 81.607 81.608">
  <g id="open-book" transform="translate(-0.002 1)">
    <g id="Group_55" data-name="Group 55" transform="translate(0.002 0)">
      <g id="Group_54" data-name="Group 54" transform="translate(0)">
        <path id="Path_80" data-name="Path 80" d="M290.278,203.685a1.362,1.362,0,0,0,1.831.594c.08-.041,8.086-4.108,12.034-5.355a1.361,1.361,0,0,0-.822-2.6c-4.159,1.315-12.111,5.355-12.448,5.526A1.361,1.361,0,0,0,290.278,203.685Z" transform="translate(-243.887 -164.984)"/>
        <path id="Path_81" data-name="Path 81" d="M291.492,102.029a1.358,1.358,0,0,0,.616-.148c.08-.041,8.086-4.108,12.034-5.355a1.361,1.361,0,0,0-.822-2.6c-4.159,1.315-12.111,5.355-12.448,5.526a1.36,1.36,0,0,0,.619,2.572Z" transform="translate(-243.887 -78.906)"/>
        <path id="Path_82" data-name="Path 82" d="M80.249,20.4a1.36,1.36,0,0,0-1.36,1.36V74.807a4.085,4.085,0,0,1-4.08,4.08H42.166v-3.13a40.082,40.082,0,0,1,12.241-2.311A70.155,70.155,0,0,1,74.38,76.1a1.36,1.36,0,0,0,1.789-1.291V14.962A1.358,1.358,0,0,0,75.1,13.634s-1.066-.238-2.889-.573a1.36,1.36,0,0,0-.492,2.675c.7.128,1.277.241,1.726.331V73a76.812,76.812,0,0,0-19.042-2.273,42.729,42.729,0,0,0-13.548,2.606,31.863,31.863,0,0,0-12.294-2.606,91.655,91.655,0,0,0-20.4,2.33V16.015a89.527,89.527,0,0,1,20.4-2.413,29.489,29.489,0,0,1,10.881,2.241V69.367a1.36,1.36,0,0,0,2.061,1.166c.135-.08,13.611-8.129,25.572-12.116a1.36,1.36,0,0,0,.93-1.291V1.361A1.362,1.362,0,0,0,66.169.086a144.685,144.685,0,0,0-22,11A1.36,1.36,0,0,0,45.607,13.4,145.373,145.373,0,0,1,65.288,3.349v52.8A152.424,152.424,0,0,0,42.165,67V14.962a1.361,1.361,0,0,0-.752-1.217,31.494,31.494,0,0,0-12.849-2.863A88.275,88.275,0,0,0,6.428,13.655a1.359,1.359,0,0,0-.986,1.307V74.807a1.36,1.36,0,0,0,1.36,1.36,1.34,1.34,0,0,0,.373-.053,87.37,87.37,0,0,1,21.389-2.667A29.424,29.424,0,0,1,39.445,75.69v3.2H6.8a4.085,4.085,0,0,1-4.08-4.08V21.763a1.36,1.36,0,0,0-2.72,0V74.807a6.808,6.808,0,0,0,6.8,6.8H74.809a6.808,6.808,0,0,0,6.8-6.8V21.763A1.36,1.36,0,0,0,80.249,20.4Z" transform="translate(-0.002 -1)"/>
        <path id="Path_83" data-name="Path 83" d="M290.278,152.485a1.362,1.362,0,0,0,1.831.594c.08-.041,8.086-4.108,12.034-5.355a1.361,1.361,0,0,0-.822-2.6c-4.159,1.315-12.111,5.355-12.448,5.526A1.361,1.361,0,0,0,290.278,152.485Z" transform="translate(-243.887 -121.944)"/>
        <path id="Path_84" data-name="Path 84" d="M290.278,254.885a1.362,1.362,0,0,0,1.831.594c.08-.041,8.086-4.108,12.034-5.355a1.361,1.361,0,0,0-.822-2.6c-4.159,1.315-12.111,5.355-12.448,5.526A1.361,1.361,0,0,0,290.278,254.885Z" transform="translate(-243.887 -208.023)"/>
        <path id="Path_85" data-name="Path 85" d="M104.685,154.4c-8.4-1.971-17.943.54-18.344.647a1.36,1.36,0,0,0,.351,2.674,1.383,1.383,0,0,0,.354-.046c.091-.026,9.28-2.443,17.019-.627a1.36,1.36,0,1,0,.62-2.648Z" transform="translate(-71.732 -129.155)"/>
        <path id="Path_86" data-name="Path 86" d="M104.685,205.6c-8.4-1.969-17.943.54-18.344.647a1.36,1.36,0,0,0,.351,2.674,1.383,1.383,0,0,0,.354-.046c.091-.026,9.28-2.443,17.019-.627a1.36,1.36,0,1,0,.62-2.648Z" transform="translate(-71.732 -172.198)"/>
        <path id="Path_87" data-name="Path 87" d="M290.278,306.085a1.362,1.362,0,0,0,1.831.594c.08-.041,8.086-4.108,12.034-5.355a1.361,1.361,0,0,0-.822-2.6c-4.159,1.315-12.111,5.355-12.448,5.526A1.361,1.361,0,0,0,290.278,306.085Z" transform="translate(-243.887 -251.062)"/>
        <path id="Path_88" data-name="Path 88" d="M104.685,256.8c-8.4-1.969-17.943.539-18.344.647a1.361,1.361,0,0,0,.351,2.675,1.378,1.378,0,0,0,.354-.048c.091-.026,9.28-2.443,17.019-.627a1.36,1.36,0,1,0,.62-2.648Z" transform="translate(-71.732 -215.236)"/>
        <path id="Path_89" data-name="Path 89" d="M104.685,359.2c-8.4-1.971-17.943.54-18.344.647a1.361,1.361,0,0,0,.351,2.675,1.377,1.377,0,0,0,.354-.048c.091-.026,9.28-2.443,17.019-.627a1.36,1.36,0,1,0,.62-2.648Z" transform="translate(-71.732 -301.312)"/>
        <path id="Path_90" data-name="Path 90" d="M104.685,308c-8.4-1.971-17.943.539-18.344.647a1.361,1.361,0,0,0,.351,2.675,1.378,1.378,0,0,0,.354-.048c.091-.026,9.28-2.443,17.019-.627a1.36,1.36,0,1,0,.62-2.648Z" transform="translate(-71.732 -258.272)"/>
      </g>
    </g>
  </g>
</svg>
