<svg xmlns="http://www.w3.org/2000/svg" width="68.876" height="90.578" viewBox="0 0 68.876 90.578">
  <g id="audio-book" transform="translate(-61.331)">
    <g id="Group_57" data-name="Group 57" transform="translate(61.331)">
      <g id="Group_56" data-name="Group 56" transform="translate(0)">
        <path id="Path_91" data-name="Path 91" d="M169.419,102.877A20.007,20.007,0,1,0,189.426,82.87,20.03,20.03,0,0,0,169.419,102.877Zm36.476,0a16.469,16.469,0,1,1-16.469-16.469A16.487,16.487,0,0,1,205.895,102.877Z" transform="translate(-150.295 -68.208)"/>
        <path id="Path_92" data-name="Path 92" d="M239.594,140.291a2.876,2.876,0,0,0-4.314,2.491v14.082a2.876,2.876,0,0,0,4.314,2.491l12.195-7.041a2.876,2.876,0,0,0,0-4.982Zm-.775,15.424V143.93l10.207,5.893Z" transform="translate(-204.503 -115.153)"/>
        <path id="Path_93" data-name="Path 93" d="M128.437,41.648a1.769,1.769,0,0,0-1.769,1.769V66.27H73.546V3.539h53.122V27.487a1.769,1.769,0,1,0,3.539,0V1.769A1.769,1.769,0,0,0,128.437,0H69.754a8.433,8.433,0,0,0-8.423,8.423V74.692h0a8.433,8.433,0,0,0,8.424,8.423h.252v5.7a1.785,1.785,0,0,0,2.929,1.337l4.549-3.945,4.549,3.945a1.785,1.785,0,0,0,2.929-1.337v-5.7h43.473a1.769,1.769,0,0,0,1.769-1.769V43.418a1.77,1.77,0,0,0-1.77-1.769ZM64.87,8.423a4.89,4.89,0,0,1,4.885-4.885h.253V66.271a8.7,8.7,0,0,0-5.137,1.557Zm13.775,74.11a1.786,1.786,0,0,0-2.319,0l-2.78,2.411V78.019h7.877v6.925Zm48.023-2.956h-41.7V76.249a1.79,1.79,0,0,0-1.77-1.769H71.777a1.787,1.787,0,0,0-1.77,1.77v3.327h-.252a4.883,4.883,0,1,1,0-9.767h56.912Z" transform="translate(-61.331)"/>
        <path id="Path_94" data-name="Path 94" d="M434.007,191.59a1.769,1.769,0,1,0-.683,2.169,1.783,1.783,0,0,0,.683-2.169Z" transform="translate(-365.268 -156.793)"/>
      </g>
    </g>
  </g>
</svg>
