<svg xmlns="http://www.w3.org/2000/svg" width="58.237" height="83.602" viewBox="0 0 58.237 83.602">
  <path id="Path_158" data-name="Path 158" d="M134.683,37.84a1.225,1.225,0,0,0,1.225-1.225v-7.5a1.225,1.225,0,0,0-1.225-1.225h-3.847l0-21.6A6.294,6.294,0,0,0,124.553,0h-4.484a1.225,1.225,0,1,0,0,2.449h4.484a3.842,3.842,0,0,1,3.837,3.837V22.843h-2.623V8.746a3.678,3.678,0,0,0-3.674-3.674H111.863a3.761,3.761,0,0,0-3.76,3.762,1.313,1.313,0,0,1-1.311,1.311h-5.072a1.312,1.312,0,0,1-1.311-1.311,3.766,3.766,0,0,0-3.76-3.762H86.416a3.678,3.678,0,0,0-3.674,3.674V48.863a1.225,1.225,0,1,0,2.449,0V8.746a1.226,1.226,0,0,1,1.225-1.225H96.648a1.313,1.313,0,0,1,1.311,1.313,3.761,3.761,0,0,0,3.76,3.76h5.072a3.765,3.765,0,0,0,3.76-3.76,1.312,1.312,0,0,1,1.311-1.313h10.231a1.226,1.226,0,0,1,1.225,1.225v14.1H119.39a6.214,6.214,0,0,0-5.009,2.538,6.214,6.214,0,0,0-4.981-2.5H99.18a1.225,1.225,0,0,0-1.225,1.225v3.781H94.107a1.225,1.225,0,0,0-1.225,1.225v25.35a1.225,1.225,0,0,0,1.225,1.225h14.11a6.3,6.3,0,0,0,12.357,0h2.744v19.17a1.226,1.226,0,0,1-1.225,1.225H86.416a1.226,1.226,0,0,1-1.225-1.225V54.2a1.225,1.225,0,0,0-2.449,0V74.856a3.678,3.678,0,0,0,3.674,3.674h35.678a3.678,3.678,0,0,0,3.674-3.674V55.686h2.623V77.315a3.842,3.842,0,0,1-3.837,3.837h-40.6a3.842,3.842,0,0,1-3.837-3.837V6.286a3.842,3.842,0,0,1,3.839-3.837h30.773a1.225,1.225,0,0,0,0-2.449H83.959a6.294,6.294,0,0,0-6.288,6.286V77.315A6.294,6.294,0,0,0,83.957,83.6h40.6a6.294,6.294,0,0,0,6.286-6.286V55.686h3.843a1.225,1.225,0,0,0,1.225-1.225V41.953a1.225,1.225,0,1,0-2.449,0V53.237h-13.99a1.225,1.225,0,0,0-1.225,1.225,3.848,3.848,0,0,1-7.7,0,1.225,1.225,0,0,0-1.225-1.225H95.331v-22.9h2.624V49.389a1.225,1.225,0,0,0,1.225,1.225h10.144a3.852,3.852,0,0,1,3.847,3.848,1.225,1.225,0,0,0,2.449,0,3.852,3.852,0,0,1,3.847-3.848h10.144a1.225,1.225,0,0,0,1.225-1.225V30.337h2.622v6.278a1.224,1.224,0,0,0,1.224,1.225ZM113.171,49.48a6.265,6.265,0,0,0-3.847-1.315H100.4V25.331h9a3.775,3.775,0,0,1,3.77,3.77Zm6.3-1.315a6.265,6.265,0,0,0-3.847,1.315V29.063a3.774,3.774,0,0,1,3.77-3.77h9V48.164Z" transform="translate(-77.671)"/>
</svg>
