<svg xmlns="http://www.w3.org/2000/svg" width="62.328" height="70.823" viewBox="0 0 62.328 70.823">
  <g id="video" transform="translate(0 0)">
    <path id="Path_97" data-name="Path 97" d="M60.945,28.589H13.752L59.081,15.457a1.384,1.384,0,0,0,.944-1.713L57.653,5.555A7.744,7.744,0,0,0,50.247,0a7.664,7.664,0,0,0-2.131.3L5.557,12.632A7.716,7.716,0,0,0,.305,22.168l2.317,8V63.125a7.707,7.707,0,0,0,7.7,7.7H26.942a1.383,1.383,0,1,0,0-2.767H10.321a4.937,4.937,0,0,1-4.932-4.932V44.3H59.561V63.125a4.937,4.937,0,0,1-4.932,4.932H38.008a1.383,1.383,0,1,0,0,2.767H54.63a7.707,7.707,0,0,0,7.7-7.7V29.972a1.383,1.383,0,0,0-1.383-1.383ZM36.553,41.534l5.877-10.179h7.644L44.2,41.534Zm-10.839,0,5.877-10.179h7.644L33.359,41.534Zm-10.839,0,5.877-10.179H28.4L22.52,41.534Zm5.143-17.907-9.842-9.453,7.374-2.136a1.372,1.372,0,0,0,.182.213L27.574,21.7,20.2,23.84a1.376,1.376,0,0,0-.182-.213ZM38.554,6.22,48.4,15.673l-7.374,2.136a1.347,1.347,0,0,0-.182-.213L31,8.142l7.374-2.136A1.372,1.372,0,0,0,38.554,6.22ZM28.143,9.236l9.842,9.452-7.374,2.136a1.348,1.348,0,0,0-.182-.213l-9.842-9.453,7.374-2.136A1.461,1.461,0,0,0,28.143,9.236ZM48.887,2.961a4.891,4.891,0,0,1,1.361-.194A4.963,4.963,0,0,1,55,6.325l1.987,6.86-5.55,1.607a1.406,1.406,0,0,0-.182-.213L41.41,5.127Zm-45.5,14.69a4.9,4.9,0,0,1,2.941-2.361l.813-.236a1.407,1.407,0,0,0,.182.213l9.842,9.453L4.95,28.258,2.962,21.4a4.9,4.9,0,0,1,.424-3.748Zm2,13.7H17.558L11.681,41.534H5.389Zm42,10.179,5.877-10.179h6.292V41.534Zm0,0" transform="translate(0 0)" fill-rule="evenodd"/>
    <path id="Path_98" data-name="Path 98" d="M210.986,352.791a1.383,1.383,0,0,0-.692-1.2l-12.153-7.016a1.383,1.383,0,0,0-2.075,1.2v14.032a1.382,1.382,0,0,0,2.075,1.2l12.153-7.016a1.383,1.383,0,0,0,.692-1.2Zm-12.153,4.62V348.17l8,4.62Zm0,0" transform="translate(-168.946 -296.753)" fill-rule="evenodd"/>
    <path id="Path_99" data-name="Path 99" d="M226.156,492a1.383,1.383,0,1,0,1.383,1.383A1.386,1.386,0,0,0,226.156,492Zm0,0" transform="translate(-193.681 -423.944)" fill-rule="evenodd"/>
  </g>
</svg>
