<svg xmlns="http://www.w3.org/2000/svg" width="65.646" height="89.732" viewBox="0 0 65.646 89.732">
  <g id="story" transform="translate(0 0)">
    <path id="Path_104" data-name="Path 104" d="M57.366,220.743a20.2,20.2,0,1,0,18.856,31.939,1.781,1.781,0,0,0-1.492-2.826,17.594,17.594,0,0,1-15.6-26.447,1.781,1.781,0,0,0-1.762-2.666Zm15.666,31.71a17.57,17.57,0,1,1-17-28.813,20.226,20.226,0,0,0,17,28.813Zm0,0" transform="translate(-32.744 -182.045)"/>
    <path id="Path_105" data-name="Path 105" d="M174.906,163.8l-4.507-1.2-2.535-3.915a1.316,1.316,0,0,0-2.207,0l-2.535,3.915-4.507,1.2a1.316,1.316,0,0,0-.682,2.1l2.94,3.621-.251,4.657a1.316,1.316,0,0,0,1.785,1.3l4.353-1.677c4.551,1.722,4.394,1.765,4.824,1.765a1.315,1.315,0,0,0,1.313-1.385l-.251-4.657,2.94-3.621a1.315,1.315,0,0,0-.681-2.1ZM170,169.156l.168,3.136-2.931-1.13c-.67-.258-.93.024-3.876,1.13.063-2.9.409-3.381-.124-4.036l-1.98-2.438c2.795-.842,3.342-.658,3.8-1.365l1.707-2.636,1.707,2.636c.461.711,1.062.54,3.8,1.365C170.511,168.129,169.95,168.312,170,169.156Zm0,0" transform="translate(-130.011 -130.38)"/>
    <path id="Path_106" data-name="Path 106" d="M248.2,270.768l-4.507-1.2-2.535-3.915a1.316,1.316,0,0,0-2.207,0l-2.535,3.915-4.507,1.2a1.316,1.316,0,0,0-.682,2.1l2.94,3.621-.251,4.658a1.316,1.316,0,0,0,1.785,1.3l4.353-1.677c4.551,1.722,4.394,1.766,4.825,1.766a1.315,1.315,0,0,0,1.312-1.386l-.251-4.657,2.94-3.621a1.315,1.315,0,0,0-.681-2.1Zm-4.911,5.355.169,3.137c-2.968-1.115-3.214-1.385-3.876-1.13l-2.931,1.13.168-3.137c.045-.845-.53-1.045-2.272-3.337,2.795-.841,3.342-.657,3.8-1.364l1.707-2.636c1.664,2.4,1.657,2.975,2.472,3.192l3.035.809c-1.766,2.324-2.317,2.5-2.272,3.337Zm0,0" transform="translate(-190.456 -218.6)"/>
    <path id="Path_107" data-name="Path 107" d="M58.154,16.91H54.786V7.7A7.7,7.7,0,0,0,44.362.506L34.844,4.115a1.315,1.315,0,0,0,.932,2.458l9.518-3.609A5.063,5.063,0,0,1,52.157,7.7V16.91H8.515L30.87,8.434a1.315,1.315,0,0,0-.932-2.458C-.9,17.68.679,16.986.353,17.358c-.612.7-.219-2.422-.326,55.187a1.314,1.314,0,0,0,2.629,0V19.539h55.5A4.869,4.869,0,0,1,63.017,24.4V82.24A4.869,4.869,0,0,1,58.154,87.1H7.519A4.869,4.869,0,0,1,2.656,82.24V77.453a1.314,1.314,0,0,0-2.629,0V82.24a7.5,7.5,0,0,0,7.492,7.492H58.154a7.5,7.5,0,0,0,7.492-7.492V24.4a7.5,7.5,0,0,0-7.492-7.492Zm0,0" transform="translate(0 0)"/>
  </g>
</svg>
