<svg xmlns="http://www.w3.org/2000/svg" width="78.769" height="83.927" viewBox="0 0 78.769 83.927">
  <g id="social-media" transform="translate(-15.731)">
    <path id="Path_100" data-name="Path 100" d="M85.282,0H81.674a1.23,1.23,0,0,0,0,2.459h3.608a6.754,6.754,0,0,1,6.758,6.734V37.649a6.754,6.754,0,0,1-6.758,6.734H81.19a1.23,1.23,0,0,0-.747.253l-7.51,5.744V45.612a1.229,1.229,0,0,0-1.23-1.23H56.739a6.725,6.725,0,0,1-3.442-.938v-13.8a7.5,7.5,0,0,0-3.316-6.221V9.193a6.754,6.754,0,0,1,6.758-6.734h17.23a1.23,1.23,0,0,0,0-2.459H56.739a9.216,9.216,0,0,0-9.218,9.193V22.34a7.538,7.538,0,0,0-1.753-.208H23.26a7.528,7.528,0,0,0-7.529,7.509V32.3a1.23,1.23,0,0,0,2.459,0V29.642a5.066,5.066,0,0,1,5.069-5.05H45.768a5.066,5.066,0,0,1,5.07,5.05V43.934a1.23,1.23,0,0,0,0,.326v7.822c0,.155-.009.309-.023.462H48.279a5.7,5.7,0,0,0-5.606,4.667,1.232,1.232,0,0,0-.319.178l-5.5,4.246V58.361a1.229,1.229,0,0,0-1.23-1.23H23.26a5.066,5.066,0,0,1-5.069-5.05V39.674a1.23,1.23,0,0,0-2.459,0V52.082a7.528,7.528,0,0,0,7.529,7.509H34.4v4.546a1.248,1.248,0,0,0,1.981.973l6.2-4.789V74.154a5.7,5.7,0,0,0,5.7,5.686h7.545v2.869a1.248,1.248,0,0,0,1.981.973l4.977-3.842h1.47a5.7,5.7,0,0,0,5.7-5.686V71.971a1.23,1.23,0,0,0-2.459,0v2.183a3.237,3.237,0,0,1-3.241,3.227h-1.89a1.23,1.23,0,0,0-.751.256l-3.328,2.569v-1.6a1.229,1.229,0,0,0-1.23-1.23H48.279a3.238,3.238,0,0,1-3.241-3.227V58.229A3.237,3.237,0,0,1,48.279,55H64.252a3.238,3.238,0,0,1,3.241,3.227v6.036a1.23,1.23,0,0,0,2.459,0V58.229a5.7,5.7,0,0,0-5.7-5.686H53.283c.009-.154.014-6.364.014-6.364a9.2,9.2,0,0,0,3.442.662H70.474v6.027a1.248,1.248,0,0,0,1.977.977l9.156-7h3.676A9.216,9.216,0,0,0,94.5,37.649V9.193A9.216,9.216,0,0,0,85.282,0Z"/>
    <path id="Path_101" data-name="Path 101" d="M283.84,54.674a2.563,2.563,0,0,0-3.152,2.448A7.224,7.224,0,0,1,278.88,61.9l-3.388,3.833a1.227,1.227,0,0,0-1.03-.559h-6.613a1.229,1.229,0,0,0-1.23,1.23v14.88a1.229,1.229,0,0,0,1.23,1.23h6.613a1.229,1.229,0,0,0,1.118-.719,8.591,8.591,0,0,0,4.469,1.26h11.688a3.218,3.218,0,0,0,3.176-3.331c-.037-.789,0-11.382,0-11.617a3.182,3.182,0,0,0-3.175-3.179l-6.078-.018.252-.6a9.6,9.6,0,0,0-.506-8.449,2.506,2.506,0,0,0-1.568-1.195h0ZM273.232,80.058h-4.154V67.637h4.154Zm18.5-12.668a.721.721,0,0,1,.72.72c0,.234,0,.869-.006,1.73-.018,4.753-.03,9.255,0,10a.72.72,0,0,1-.719.756H280.049a6.122,6.122,0,0,1-3.84-1.359l-.518-.419v-9.6l5.032-5.694a9.682,9.682,0,0,0,2.424-6.41.069.069,0,0,1,.126-.033,7.127,7.127,0,0,1,.376,6.272l-.97,2.3a1.229,1.229,0,0,0,1.129,1.708Z" transform="translate(-209.757 -45.59)"/>
    <path id="Path_102" data-name="Path 102" d="M73.681,204.483a1.23,1.23,0,0,0,0,2.459H77.3l-.677,4.1a1.23,1.23,0,1,0,2.426.4l.743-4.5h2.966l-.677,4.1a1.23,1.23,0,1,0,2.426.4l.743-4.5H90.19a1.23,1.23,0,1,0,0-2.459H85.663l.5-3H90.19a1.23,1.23,0,0,0,0-2.459H86.565l.677-4.1a1.23,1.23,0,1,0-2.426-.4l-.743,4.5H81.106l.677-4.1a1.23,1.23,0,0,0-2.426-.4l-.743,4.5H73.681a1.23,1.23,0,1,0,0,2.459h4.527l-.5,3Zm7.02-3h2.966l-.5,3H80.2Z" transform="translate(-47.421 -161.776)"/>
    <path id="Path_103" data-name="Path 103" d="M226.937,369.4a4.135,4.135,0,0,0-3.639-.818,4.574,4.574,0,0,0-3.411,4.616,6.037,6.037,0,0,0,1.817,4.321,18.037,18.037,0,0,0,4.672,3.223,1.229,1.229,0,0,0,1.152,0c3.895-2.065,6.489-4.138,6.489-7.544a4.545,4.545,0,0,0-3.533-4.592A4.123,4.123,0,0,0,226.937,369.4Zm4.62,3.8c0,1.837-1.219,3.2-4.606,5.06-3.387-1.865-4.606-3.223-4.606-5.06a2.1,2.1,0,0,1,1.532-2.226,1.844,1.844,0,0,1,.433-.052,1.7,1.7,0,0,1,1.548.99,1.23,1.23,0,0,0,2.207-.044,1.6,1.6,0,0,1,1.885-.858A2.079,2.079,0,0,1,231.557,373.2Z" transform="translate(-170.686 -308.051)"/>
  </g>
</svg>
