<svg xmlns="http://www.w3.org/2000/svg" width="107.615" height="99.113" viewBox="0 0 107.615 99.113">
  <g id="XMLID_1527_" transform="translate(0 0)">
    <g id="XMLID_1550_" transform="translate(0)">
      <g id="XMLID_98_">
        <path id="XMLID_99_" d="M8.748,131.691a33.675,33.675,0,0,0-4.332-16.685,2.1,2.1,0,0,1,3.665-2.058,38.353,38.353,0,0,1,4.87,18.743A53.312,53.312,0,0,1,7.6,154.648a31.9,31.9,0,0,0-2.533,21.631l3.1,12.851a2.1,2.1,0,1,1-4.087.985l-3.1-12.851a36.109,36.109,0,0,1,2.855-24.487,48.959,48.959,0,0,0,4.916-21.086Z" transform="translate(94.663 -92.612)" fill="#952269"/>
        <path id="XMLID_111_" d="M85.082,77.915l48.912-25.46L85.082,27a2.1,2.1,0,1,1,1.941-3.729L117.86,39.319a39.077,39.077,0,0,1,33.352-19.095,41.429,41.429,0,0,1,21.706,6.085,2.1,2.1,0,0,1-2.2,3.582,37.231,37.231,0,0,0-19.507-5.463A34.868,34.868,0,0,0,121.6,41.264l15.468,8.052a16.314,16.314,0,0,1,32.419,2.327c0,.012,0,.024,0,.036V70.934a2.1,2.1,0,0,1-1.51,2.017l-17.837,5.24a2.1,2.1,0,0,1-2.694-2.017v-5.18h-2.763a6.261,6.261,0,0,1-6.254-6.254V62.766h-2.151a2.1,2.1,0,0,1-2.009-2.719l1.095-3.565L114.053,67.574,109.93,81h8.42a2.1,2.1,0,0,1,2.1,2.1V93.892a8.9,8.9,0,0,0,8.894,8.894h12.882a2.1,2.1,0,0,1,2.071,1.74l2.155,12.347a2.1,2.1,0,1,1-4.141.723l-1.852-10.606H129.346a13.113,13.113,0,0,1-13.1-13.1V85.2h-9.162a2.1,2.1,0,0,1-2.009-2.719L108.819,70.3l-21.8,11.346a2.1,2.1,0,1,1-1.94-3.728Zm55.446-19.352a2.1,2.1,0,0,1,2.1,2.1V64.74a2.053,2.053,0,0,0,2.051,2.051h4.865a2.1,2.1,0,0,1,2.1,2.1v4.474l13.633-4.005V51.7a12.111,12.111,0,0,0-24.22.229,2.1,2.1,0,0,1-.092.617l-1.849,6.02h1.409Z" transform="translate(-83.95 -20.224)"/>
      </g>
    </g>
    <g id="XMLID_1529_" transform="translate(93.148 11.685)">
      <g id="XMLID_1531_" transform="translate(0 0)">
        <path id="XMLID_122_" d="M50.932,80.026a2.1,2.1,0,1,0-1.486-.616A2.114,2.114,0,0,0,50.932,80.026Z" transform="translate(-48.83 -75.82)"/>
      </g>
    </g>
  </g>
</svg>
