<svg id="winner" xmlns="http://www.w3.org/2000/svg" width="85.175" height="99.113" viewBox="0 0 85.175 99.113">
  <g id="Group_98" data-name="Group 98">
    <path id="Path_129" data-name="Path 129" d="M115.369,267.488H94.076v-9.679A5.814,5.814,0,0,0,88.268,252H68.91a5.814,5.814,0,0,0-5.807,5.807v1.936H41.809A5.814,5.814,0,0,0,36,265.553V300.4a1.936,1.936,0,0,0,1.936,1.936h81.3a1.936,1.936,0,0,0,1.936-1.936V273.3A5.814,5.814,0,0,0,115.369,267.488ZM90.2,298.461H66.975v-4.84a1.936,1.936,0,1,0-3.872,0v4.84H39.874V265.552a1.938,1.938,0,0,1,1.936-1.936H63.1V276.2a1.936,1.936,0,0,0,3.872,0v-18.39a1.938,1.938,0,0,1,1.936-1.936H88.268a1.938,1.938,0,0,1,1.936,1.936Zm27.1,0H94.076v-27.1h21.294A1.938,1.938,0,0,1,117.3,273.3Z" transform="translate(-36.002 -203.22)"/>
    <path id="Path_130" data-name="Path 130" d="M376.652,377.81a5.786,5.786,0,0,0-10.188-3.776,1.936,1.936,0,1,0,2.944,2.514,1.914,1.914,0,0,1,3.372,1.262,1.931,1.931,0,0,1-.579,1.386,1.936,1.936,0,0,0,.269,2.98,2.908,2.908,0,0,1-1.608,5.313,2.839,2.839,0,0,1-1.746-.594,1.936,1.936,0,0,0-2.361,3.069,6.677,6.677,0,0,0,4.107,1.4A6.78,6.78,0,0,0,376.1,380.3,5.8,5.8,0,0,0,376.652,377.81Z" transform="translate(-302.12 -299.991)"/>
    <path id="Path_131" data-name="Path 131" d="M95.681,347.475H91.017c.426-.392.961-.812,1.584-1.293,2.214-1.708,4.969-3.834,5.016-7.838a6.2,6.2,0,0,0-4.574-6.177,5.632,5.632,0,0,0-6.478,3.024A1.936,1.936,0,0,0,89.985,337a1.77,1.77,0,0,1,2.1-1.087,2.312,2.312,0,0,1,1.66,2.38c-.023,1.987-1.341,3.146-3.51,4.819C88.252,344.648,86,346.383,86,349.41a1.936,1.936,0,0,0,1.936,1.936h7.743a1.936,1.936,0,0,0,0-3.872Z" transform="translate(-76.324 -267.72)"/>
    <path id="Path_132" data-name="Path 132" d="M241.142,307.489h-.21v-13.55a1.936,1.936,0,0,0-2.9-1.676l-2.146,1.239a1.936,1.936,0,0,0,1.178,3.6v10.386h-.21a1.936,1.936,0,0,0,0,3.872h4.292a1.936,1.936,0,1,0,0-3.872Z" transform="translate(-196.408 -235.478)"/>
    <path id="Path_133" data-name="Path 133" d="M160.911,44.6l-.97,7.4a4.969,4.969,0,0,0,.419,3.129,5.017,5.017,0,0,0,6.705,2.314l6.8-3.312,6.991,3.331a5.016,5.016,0,0,0,7.122-5.218l-1.049-7.5L192.1,39.29a5.016,5.016,0,0,0-2.6-8.561l-7.457-1.321-3.7-6.8h0a5.006,5.006,0,0,0-8.815.039l-3.56,6.683-7.491,1.392a5.01,5.01,0,0,0-2.824,8.423Zm-2.44-9.75a1.129,1.129,0,0,1,.617-.305l.066-.011,8.436-1.568a1.936,1.936,0,0,0,1.355-.993l4-7.505a1.135,1.135,0,0,1,2-.009l4.142,7.618a1.936,1.936,0,0,0,1.363.982l8.38,1.484a1.144,1.144,0,0,1,.585,1.962q-.043.04-.084.083l-5.843,6.163a1.936,1.936,0,0,0-.512,1.6l1.177,8.424a1.147,1.147,0,0,1-1.621,1.19l-7.834-3.732a1.935,1.935,0,0,0-1.68.007l-7.643,3.72a1.145,1.145,0,0,1-1.53-.528,1.133,1.133,0,0,1-.092-.73q.014-.069.023-.139l1.1-8.385a1.936,1.936,0,0,0-.526-1.6l-5.905-6.125a1.138,1.138,0,0,1,.031-1.609Z" transform="translate(-131.36 -16.122)" fill="#952269"/>
    <path id="Path_134" data-name="Path 134" d="M95.468,3.613l7.641,4.412a1.936,1.936,0,1,0,1.936-3.353L97.4.26a1.936,1.936,0,1,0-1.936,3.353Z" transform="translate(-83.176 0)"/>
    <path id="Path_135" data-name="Path 135" d="M62.59,117.125a1.985,1.985,0,0,0,.281-.02l8.731-1.27A1.936,1.936,0,1,0,71.045,112l-8.731,1.27a1.936,1.936,0,0,0,.276,3.852Z" transform="translate(-55.884 -90.305)"/>
    <path id="Path_136" data-name="Path 136" d="M111,197.035l-6.239,6.239a1.936,1.936,0,1,0,2.738,2.738l6.239-6.239A1.936,1.936,0,1,0,111,197.035Z" transform="translate(-90.995 -158.436)"/>
    <path id="Path_137" data-name="Path 137" d="M359.965,8.284a1.928,1.928,0,0,0,.966-.26l7.641-4.412A1.936,1.936,0,1,0,366.637.26L359,4.671a1.936,1.936,0,0,0,.97,3.613Z" transform="translate(-295.69 0)"/>
    <path id="Path_138" data-name="Path 138" d="M386.26,113.64a1.936,1.936,0,0,0,1.637,2.194l8.731,1.27a1.936,1.936,0,0,0,.557-3.831L388.454,112A1.937,1.937,0,0,0,386.26,113.64Z" transform="translate(-318.441 -90.305)"/>
    <path id="Path_139" data-name="Path 139" d="M356.145,197.035a1.936,1.936,0,0,0,0,2.738l6.239,6.239a1.936,1.936,0,0,0,2.738-2.738l-6.239-6.239a1.936,1.936,0,0,0-2.738,0Z" transform="translate(-293.715 -158.436)"/>
    <path id="Path_140" data-name="Path 140" d="M177.938,412a1.936,1.936,0,1,0,1.936,1.936h0A1.935,1.935,0,0,0,177.938,412Z" transform="translate(-148.901 -332.246)"/>
  </g>
</svg>
